# xmcd
#
# Track frame offsets:
#	150
#	27491
#	57335
#	80855
#	99959
#	114364
#	141510
#	165180
#	178883
#	194154
#
# Disc length: 2769 seconds
#
# Revision: 0
# Processed by: cddbd v1.5.2PL0 Copyright (c) Steve Scherf et al.
# Submitted via: EZCDAudioConverter 2.1.7.1
#
DISCID=8d0acf0a
DTITLE=The Congos - Heart Of The Congos 3/3
DYEAR=1900
DGENRE=
TTITLE0=Fisherman [Original Mix]
TTITLE1=Congoman [Original Mix]
TTITLE2=Open Upthe Gate [Original Mix]
TTITLE3=Children Crying [Original Mix]
TTITLE4=La La Bam-Bam [Original Mix]
TTITLE5=Can't Come In [Original Mix]
TTITLE6=Sodom And Gomorrow [Original Mix]
TTITLE7=The Wrong Thing [Original Mix]
TTITLE8=Ark Of The Covenant [Original Mix]
TTITLE9=Solid Foundation [Original Mix]
EXTD=
EXTT0=
EXTT1=
EXTT2=
EXTT3=
EXTT4=
EXTT5=
EXTT6=
EXTT7=
EXTT8=
EXTT9=
PLAYORDER=
